<svg xmlns="http://www.w3.org/2000/svg" width="400" height="600" viewBox="0 0 400 600"><rect width="100%" height="100%" fill="#9A1737"/><path fill="#19012C" d="M118.02 284.47c-7.23 0-13.12 3.49-16.1 10.05v-36.4c-4.36 1.02-9.48 1.43-15.33 1.43-2.1 0-4.3-.1-6.51-.31v2.21c5.08 0 6.72 2.97 6.72 9.23v64.44c0 2-.16 4-.72 5.9l1.59.92c2.46-2.25 7.23-3.89 11.84-3.89.57 0 1.13 0 1.69.05 3.23 2.61 7.28 3.64 11.75 3.64 12.91 0 24.04-8.21 24.04-30.05 0-18.35-8.15-27.22-18.97-27.22Zm-8.3 55.01c-2.67 0-5.49-.87-7.8-2.77v-38.55c1.23-5.8 5.49-9.18 9.85-9.18 5.84 0 9.38 6.2 9.38 24.15 0 17.79-3.8 26.35-11.43 26.35Zm60.9-55.01c-15.07 0-25.68 7.89-25.68 28.66 0 20.81 10.61 28.61 25.68 28.61 15.13 0 25.74-7.8 25.74-28.61 0-20.77-10.61-28.66-25.74-28.66Zm0 2.1c5.75 0 9.9 7.79 9.9 26.56 0 18.81-4.15 26.5-9.9 26.5-5.69 0-9.84-7.69-9.84-26.5 0-18.77 4.15-26.56 9.84-26.56Zm59.32-2.1c-15.07 0-25.68 7.89-25.68 28.66 0 20.81 10.61 28.61 25.68 28.61 15.13 0 25.74-7.8 25.74-28.61 0-20.77-10.61-28.66-25.74-28.66Zm0 2.1c5.74 0 9.9 7.79 9.9 26.56 0 18.81-4.16 26.5-9.9 26.5-5.69 0-9.84-7.69-9.84-26.5 0-18.77 4.15-26.56 9.84-26.56Zm66.86 16.61 6.77-7.02c4.35-4.36 8.71-7.18 13.12-8.15v-2.11c-2.46.21-8.31.36-12.3.36-3.23 0-8.41-.15-12.31-.36v2.11c4.67.25 8.15 2.3 8.15 5.58 0 1.8-1.07 3.95-3.53 6.36l-7.95 7.8c-1.74 1.74-3.69 2.4-6.36 2.61v-52.3c-4.36 1.03-9.43 1.44-15.33 1.44-2.05 0-4.25-.1-6.46-.31v2.21c5.08 0 6.72 2.97 6.72 9.28v59.83c0 5.84-1.85 7.54-6.72 7.54v2.2c2.77-.1 9.02-.41 14.51-.41 5.28 0 11.02.31 13.59.41v-2.2c-4.57 0-6.31-1.7-6.31-7.54v-18.05c2.31.1 3.69.77 5.18 3.23l10.41 18.77c.3.61.51 1.12.51 1.64 0 1.18-1.13 1.95-3.18 1.95v2.2c2.62-.1 8.41-.41 13.59-.41 4.15 0 8.92.31 11.02.41v-2.2c-2.46-.82-3.85-2.93-5.49-5.49Z"/></svg>