<svg xmlns="http://www.w3.org/2000/svg" width="400" height="600" viewBox="0 0 400 600"><rect width="100%" height="100%" fill="#9A1737"/><path fill="#19012C" d="M151.385 301.595c0-5.74-.73-9.09-2.68-11.3-1.79-2.04-4.67-3.4-9.52-3.4-5.86 0-11.25 1.96-14.44 8.58-.38-2.25-1.1-3.91-2.21-5.18-1.78-2.04-4.71-3.4-9.51-3.4-5.74 0-10.75 2.34-13.47 8.12v-7.86c-3.65.85-7.86 1.23-12.7 1.23-1.74 0-3.57-.13-5.4-.3v1.83c4.21 0 5.57 2.46 5.57 7.69v27.44c0 4.84-1.53 6.24-5.57 6.24v1.83c2.3-.08 7.52-.34 11.98-.34 4.04 0 8.33.26 10.28.34v-1.83c-3.1 0-4.16-1.4-4.16-6.24v-24.26c0-5.73 3.78-10.07 8.45-10.07 3.95 0 4.68 2.94 4.68 7.27v27.06c0 4.84-1.15 6.24-4.21 6.24v1.83c2.04-.08 6.54-.34 10.79-.34 4.04 0 8.88.26 10.96.34v-1.83c-3.74 0-5.01-1.4-5.01-6.24v-23.45l-.05-1.78c.68-5.1 4.25-9.1 8.5-9.1 4.33 0 5.18 2.94 5.18 7.27v27.06c0 4.84-1.1 6.24-4.16 6.24v1.83c2.04-.08 6.54-.34 10.79-.34 4.25 0 9.26.26 11.47.34v-1.83c-4.04 0-5.56-1.4-5.56-6.24Zm31.22-14.7c-12.49 0-21.28 6.54-21.28 23.75 0 17.24 8.79 23.7 21.28 23.7 12.53 0 21.32-6.46 21.32-23.7 0-17.21-8.79-23.75-21.32-23.75Zm0 1.74c4.76 0 8.2 6.46 8.2 22.01 0 15.59-3.44 21.96-8.2 21.96-4.72 0-8.16-6.37-8.16-21.96 0-15.55 3.44-22.01 8.16-22.01Zm60.87-.21c-2.29 0-5.69-.08-8.37-.34v1.83c3.91.25 6.38 2.42 6.38 6.92 0 1.87-.43 4.16-1.36 6.93l-6.25 17.29-9.98-26.43c-.3-.89-.43-1.61-.43-2.21 0-2.55 2.51-2.5 5.44-2.5v-1.83c-3.48.3-7.73.47-11.3.47-4.84 0-8.66-.17-12.36-.47v1.83c1.23 0 3.23.42 5.06 4.88l15.46 38.49c.98-.09 1.91-.13 2.84-.13.94 0 1.92.04 2.85.13l12.74-35.9c1.79-5.18 3.79-6.92 5.95-7.47v-1.83c-1.48.26-4.33.34-6.67.34Zm20.14-22.77c-4.89 0-7.95 2.55-7.95 6.71 0 4.21 3.06 6.76 7.95 6.76 4.8 0 7.9-2.55 7.9-6.76 0-4.16-3.1-6.71-7.9-6.71Zm6.84 21.5c-3.66.85-7.86 1.23-12.7 1.23-1.75 0-3.57-.13-5.4-.3v1.83c4.21 0 5.57 2.46 5.57 7.69v27.44c0 4.84-1.53 6.24-5.57 6.24v1.83c2.3-.08 7.52-.34 12.02-.34 4.55 0 9.43.26 11.64.34v-1.83c-4.08 0-5.56-1.4-5.56-6.24Zm34.92 40.01c-5.53 0-11.35-4.71-11.35-16.82 0-1.4.05-2.85.17-4.12h24.35c0-13.64-6.21-19.33-16.36-19.33-12.36 0-21.28 8.03-21.28 24.17 0 15.89 8.32 23.28 20.05 23.28 9.64 0 15.33-7.01 17.42-13.55l-1.58-.59c-3.52 5.77-7.94 6.96-11.42 6.96Zm-3.7-38.4c4.25 0 6.08 7.31 5.91 15.8h-13.64c.72-11.25 3.82-15.8 7.73-15.8Z"/></svg>