<svg xmlns="http://www.w3.org/2000/svg" width="400" height="600" viewBox="0 0 400 600"><rect width="100%" height="100%" fill="#9A1737"/><path fill="#19012C" d="M192.265 236.105c-16.26.53-39.38.53-55.46.53s-39.37 0-55.63-.53c.87 12.22 1.23 24.61 1.23 30.58 0 5.37-.18 10.38-.53 13.72h4.13c6.15-30.41 15.47-40.17 32.43-40.17h3.96v102.74c0 14.68-3.26 16.79-19.25 16.97v3.6c7.12-.26 19.6-.53 32.87-.53 13.27 0 26.63.27 34.28.53v-3.6c-16-.18-19.25-2.29-19.25-16.97v-102.74h3.95c16.79 0 26.28 9.84 32.35 40.17h4.13c-.35-3.34-.53-8.35-.53-13.72 0-5.97.35-18.36 1.32-30.58Zm112.85.53c-7.47 0-14.32-.18-22.41-.53v3.6c9.58.27 15.12 4.13 15.12 14.15 0 5.36-1.59 12.48-5.01 21.8l-22.15 59.76-31.82-80.59c-1.4-3.6-2.11-6.42-2.11-8.44 0-5.18 4.31-6.33 12.66-6.68v-3.6c-5.89.35-16.26.53-27.34.53-9.93 0-20.21-.18-27.42-.53v3.6c3.52.18 7.91 2.9 11.34 11.52l45.88 112.67c1.93-.09 4.04-.17 6.24-.17 2.11 0 4.31.08 6.24.17l38.06-102.83c4.83-13.45 11.25-19.34 16.43-21.36v-3.6c-3.6.35-8.44.53-13.71.53Z"/></svg>